<svg width="274" height="220" viewBox="0 0 274 220" fill="none" xmlns="http://www.w3.org/2000/svg">
<mask id="mask0" style="mask-type:alpha" maskUnits="userSpaceOnUse" x="0" y="0" width="274" height="220">
<path fill-rule="evenodd" clip-rule="evenodd" d="M4.57764e-05 0.202637H273.057V219.969H4.57764e-05V0.202637Z" fill="white"/>
</mask>
<g mask="url(#mask0)">
<path fill-rule="evenodd" clip-rule="evenodd" d="M197.521 147.384C194.66 147.384 192.34 145.065 192.34 142.203C192.34 139.342 194.66 137.023 197.521 137.023C200.382 137.023 202.702 139.342 202.702 142.203C202.702 145.065 200.382 147.384 197.521 147.384ZM82.595 34.8323C79.5231 34.8323 77.0331 32.342 77.0331 29.2702C77.0331 26.1981 79.5231 23.708 82.595 23.708C85.6668 23.708 88.1573 26.1981 88.1573 29.2702C88.1573 32.342 85.6668 34.8323 82.595 34.8323ZM248.321 22.209C217.999 33.5997 176.776 41.8637 147.914 19.395C136.722 10.6826 125.39 5.47533 114.519 2.65485C80.5804 -6.15228 44.9958 9.33409 27.9091 39.952L13.2602 66.2031C-8.9627 106.025 -1.70575 151.091 23.5301 182.089L47.6431 134.847C47.5266 134.85 47.4107 134.855 47.2933 134.855C40.4424 134.855 34.8888 129.302 34.8888 122.451C34.8888 115.6 40.4424 110.046 47.2933 110.046C51.5499 110.046 55.3048 112.191 57.5388 115.458L78.8295 73.7454C74.9679 72.9043 71.068 71.7367 67.5955 70.069C49.1597 61.2154 77.3706 28.5694 132.017 40.1695C147.636 43.485 137.084 54.4528 119.585 58.158C118.146 58.4629 116.931 58.7905 115.922 59.1401H134.452C134.95 57.8865 135.239 57.1148 135.239 57.1148L135.379 57.1338C134.844 56.4365 134.468 55.5247 134.468 55.5247L145.537 50.8251C143.868 54.8527 139.998 56.7449 137.979 57.4852L138.569 57.5648L138.238 59.1401H153.707C153.616 58.9498 153.565 58.8263 153.565 58.8263L164.635 54.1267C163.676 56.4412 161.989 58.049 160.345 59.1401H210.018V63.283L206.001 71.1553C210.192 75.2783 212.792 81.0142 212.792 87.3579C212.792 99.9103 202.616 110.086 190.064 110.086C188.78 110.086 187.522 109.978 186.297 109.773L145.412 189.904H78.3176C78.3115 189.933 78.3058 189.964 78.2995 189.992C78.0693 191.011 72.1574 191.872 71.7861 189.904H30.5715C49.1022 208.49 74.9099 220.317 104.769 219.962H104.769C165.352 219.242 219.389 181.696 241.197 125.17L271.789 45.8785C277.466 31.1644 263.084 16.6627 248.321 22.209Z" fill="#E0E9F8"/>
</g>
<path fill-rule="evenodd" clip-rule="evenodd" d="M47.2932 110.046C40.4425 110.046 34.8887 115.6 34.8887 122.451C34.8887 129.302 40.4425 134.855 47.2932 134.855C47.4106 134.855 47.5265 134.85 47.643 134.847L57.5387 115.459C55.3047 112.191 51.5498 110.046 47.2932 110.046Z" fill="#C5D6F1"/>
<path fill-rule="evenodd" clip-rule="evenodd" d="M71.7853 189.902C71.5329 188.549 71.5906 187.115 71.7976 185.762H21.6557V189.905H30.5716H71.7859C71.7857 189.904 71.7855 189.903 71.7853 189.902Z" fill="#99B9EE"/>
<path fill-rule="evenodd" clip-rule="evenodd" d="M147.723 181.188L116.987 151.865C116.363 152.096 115.677 152.328 114.952 152.539L146.825 182.948L145.389 185.762H82.5943C82.5969 186.604 81.028 186.117 80.0282 185.762H79.3079C78.9806 185.89 78.7314 186.191 78.7041 186.582C78.6015 188.053 78.4894 189.106 78.3175 189.905H145.412L186.297 109.774C185.648 109.665 185.009 109.531 184.38 109.37L147.723 181.188Z" fill="#99B9EE"/>
<path fill-rule="evenodd" clip-rule="evenodd" d="M151.576 78.0921L173.613 71.6755C177.752 67.3345 183.592 64.6297 190.064 64.6297C191.949 64.6297 193.78 64.8607 195.531 65.2934L208.797 61.4308L208.816 61.4947L210.017 59.1401H160.345C159.04 60.0063 157.762 60.5467 156.895 60.8523C156.335 62.6595 153.853 70.6787 151.576 78.0921Z" fill="#F7F7F7"/>
<path fill-rule="evenodd" clip-rule="evenodd" d="M127.162 74.6487C130.051 69.8908 133.063 62.6373 134.452 59.1401H115.922C106.433 62.4265 115.161 67.6786 127.162 74.6487Z" fill="#F7F7F7"/>
<path fill-rule="evenodd" clip-rule="evenodd" d="M79.3078 185.762H80.0281C80.0194 185.759 80.0104 185.756 80.0016 185.752C79.7631 185.667 79.5195 185.679 79.3078 185.762Z" fill="#F7F7F7"/>
<path fill-rule="evenodd" clip-rule="evenodd" d="M207.675 63.729L198.718 66.3372C200.844 67.2134 202.808 68.4016 204.553 69.8466L207.675 63.729Z" fill="#F7F7F7"/>
<path fill-rule="evenodd" clip-rule="evenodd" d="M134.126 78.7295C135.828 79.7482 137.134 80.8539 138.091 82.0185L141.861 80.921C142.488 77.7927 143.869 73.5116 146.908 69.8197C151.508 64.2315 153.473 61.4927 154.309 60.2025C154.048 59.8193 153.836 59.4117 153.707 59.1401H138.238L134.126 78.7295Z" fill="#F7F7F7"/>
<path fill-rule="evenodd" clip-rule="evenodd" d="M78.4864 180.46C78.6019 180.571 78.7198 180.686 78.8404 180.809C81.6648 183.685 82.5924 185.115 82.5945 185.761H145.389L146.825 182.948L114.952 152.539C112.381 153.288 109.336 153.767 106.953 152.93C106.953 152.93 104.336 149.241 109.281 147.129L94.9737 133.479L84.0318 141.282C78.796 157.473 78.466 175.395 78.4864 180.46Z" fill="#F7F7F7"/>
<path fill-rule="evenodd" clip-rule="evenodd" d="M71.7975 185.762C72.2065 183.086 73.2016 180.729 73.5618 179.937C72.8822 166.916 73.7532 156.111 75.1437 147.62L21.6558 185.762H71.7975Z" fill="#F7F7F7"/>
<path fill-rule="evenodd" clip-rule="evenodd" d="M112.828 146.159C113.464 146.052 113.802 145.37 113.527 144.787C112.732 143.098 111.303 139.603 118.56 145.464C118.776 145.639 118.971 145.807 119.155 145.971L119.151 145.956C119.151 145.956 143.707 135.497 144.053 132.554C144.398 129.611 131.119 121.317 131.119 121.317L134.433 113.63C134.433 113.63 148.979 121.075 154.043 130.972C159.236 141.122 128.223 147.532 120.211 150.472C120.211 150.472 120.21 150.473 120.21 150.473C120.21 150.473 118.893 151.16 116.987 151.865L147.723 181.188L184.38 109.369C174.578 106.846 167.336 97.9476 167.336 87.3577C167.336 82.4835 168.871 77.968 171.483 74.2671L150.912 80.257C149.711 84.1748 148.631 87.7176 148.013 89.7971C146.366 95.3358 139.182 99.7791 135.934 101.247C136.616 103.097 137.458 104.579 138.086 105.545C138.573 106.293 138.435 107.284 137.758 107.867L132.757 112.173C133.322 112.64 133.882 113.124 134.433 113.63L131.119 121.317L120.486 117.37C120.486 117.37 115.369 123.327 107.177 124.777L96.5431 132.36L111.328 146.466C111.788 146.353 112.285 146.25 112.828 146.159Z" fill="#F7F7F7"/>
<path fill-rule="evenodd" clip-rule="evenodd" d="M141.522 82.9912L139.198 83.6677C139.545 84.3224 139.796 84.9908 139.956 85.6689C140.406 85.5487 140.866 85.4355 141.338 85.3322C141.338 85.3322 141.338 84.4336 141.522 82.9912Z" fill="#F7F7F7"/>
<path fill-rule="evenodd" clip-rule="evenodd" d="M111.328 146.466L96.5431 132.36L94.9738 133.479L109.281 147.129C109.856 146.884 110.534 146.66 111.328 146.466Z" fill="#99B9EE"/>
<path fill-rule="evenodd" clip-rule="evenodd" d="M141.861 80.9209L138.091 82.0185C138.534 82.5564 138.901 83.107 139.198 83.6676L141.522 82.9913C141.598 82.3878 141.707 81.6895 141.861 80.9209Z" fill="#99B9EE"/>
<path fill-rule="evenodd" clip-rule="evenodd" d="M208.797 61.4308L195.531 65.2934C196.627 65.5639 197.691 65.9139 198.718 66.337L207.675 63.729L204.553 69.8464C205.054 70.262 205.537 70.6991 206.001 71.1554L210.017 63.2831V59.1401L208.816 61.4947L208.797 61.4308Z" fill="#99B9EE"/>
<path fill-rule="evenodd" clip-rule="evenodd" d="M171.483 74.2672C172.129 73.3512 172.841 72.4846 173.613 71.6753L151.576 78.092C151.352 78.8218 151.13 79.5454 150.912 80.2571L171.483 74.2672Z" fill="#99B9EE"/>
<path fill-rule="evenodd" clip-rule="evenodd" d="M75.1437 147.62C77.6015 132.608 81.6811 124.827 81.6811 124.827L89.2764 129.108C87.1318 132.868 85.4115 137.014 84.0317 141.282L94.9738 133.479L96.5431 132.36L107.177 124.777C103.407 125.444 98.9849 125.157 94.1097 122.894L89.2764 129.108L81.6811 124.827C81.6811 124.827 84.0498 117.212 88.2194 111.173C87.614 109.841 87.274 108.364 87.274 106.806C87.274 106.806 70.2937 86.5567 97.8383 78.0127C105.584 75.6102 92.4452 76.7102 78.8295 73.7451L57.5388 115.458L47.643 134.846L23.5302 182.089L21.6557 185.761L75.1437 147.62Z" fill="white"/>
<path fill-rule="evenodd" clip-rule="evenodd" d="M197.521 137.022C194.66 137.022 192.34 139.342 192.34 142.203C192.34 145.064 194.66 147.384 197.521 147.384C200.382 147.384 202.702 145.064 202.702 142.203C202.702 139.342 200.382 137.022 197.521 137.022Z" fill="#C5D6F1"/>
<path fill-rule="evenodd" clip-rule="evenodd" d="M198.718 66.3368C197.691 65.9137 196.627 65.5638 195.531 65.2931C193.78 64.8604 191.949 64.6294 190.064 64.6294C183.592 64.6294 177.752 67.3344 173.613 71.6753C172.841 72.4844 172.129 73.3512 171.483 74.267C168.871 77.9679 167.336 82.4834 167.336 87.3576C167.336 97.9476 174.578 106.846 184.38 109.369C185.009 109.531 185.648 109.665 186.297 109.773C187.522 109.978 188.78 110.086 190.064 110.086C202.616 110.086 212.792 99.9101 212.792 87.3576C212.792 81.0139 210.192 75.2782 206.001 71.1552C205.537 70.6989 205.054 70.2616 204.553 69.8462C202.808 68.4012 200.844 67.213 198.718 66.3368Z" fill="#C5D6F1"/>
<path fill-rule="evenodd" clip-rule="evenodd" d="M82.5951 23.708C79.5232 23.708 77.0329 26.1983 77.0329 29.2701C77.0329 32.342 79.5232 34.8323 82.5951 34.8323C85.6669 34.8323 88.1572 32.342 88.1572 29.2701C88.1572 26.1983 85.6669 23.708 82.5951 23.708Z" fill="#C5D6F1"/>
<path fill-rule="evenodd" clip-rule="evenodd" d="M127.162 74.6485C129.402 75.9496 131.755 77.3101 134.126 78.7293H134.126L138.238 59.14L138.569 57.5647L137.979 57.4851C137.205 57.7688 136.702 57.8839 136.702 57.8839C136.233 58.0273 135.765 57.6362 135.379 57.1337L135.239 57.1147C135.239 57.1147 134.95 57.8862 134.452 59.14C133.063 62.6372 130.051 69.8906 127.162 74.6485Z" fill="#0B4870"/>
<path fill-rule="evenodd" clip-rule="evenodd" d="M148.013 89.797C148.631 87.7176 149.71 84.1748 150.912 80.257C151.13 79.5452 151.352 78.8217 151.576 78.0918C153.853 70.6786 156.335 62.6592 156.895 60.852C156.225 61.0881 155.8 61.1854 155.8 61.1854C155.26 61.3506 154.722 60.8082 154.309 60.2021C153.473 61.4924 151.508 64.2312 146.908 69.8194C143.869 73.5113 142.488 77.7924 141.861 80.9206C141.707 81.6892 141.598 82.3875 141.522 82.9911C141.339 84.4335 141.338 85.3321 141.338 85.3321C140.866 85.4351 140.406 85.5486 139.956 85.6686C140.892 89.6147 138.793 93.8823 134.978 97.6425C135.192 98.9521 135.535 100.163 135.934 101.247C139.182 99.7789 146.366 95.3357 148.013 89.797Z" fill="#0B4870"/>
<path fill-rule="evenodd" clip-rule="evenodd" d="M120.486 117.37L131.119 121.317L134.433 113.63C133.882 113.124 133.322 112.64 132.757 112.173L137.758 107.867C138.435 107.284 138.573 106.293 138.086 105.545C137.458 104.579 136.617 103.097 135.934 101.247C135.535 100.163 135.192 98.9522 134.978 97.6426C128.737 103.795 117.908 108.588 108.284 108.387C108.161 109.211 107.94 110.003 107.637 110.754C107.996 111.643 108.195 112.613 108.195 113.63C108.195 117.876 104.754 121.318 100.508 121.318C97.2227 121.318 94.4201 119.256 93.3197 116.356C91.0661 115.288 89.253 113.446 88.2194 111.173C84.0498 117.212 81.6811 124.827 81.6811 124.827L89.2764 129.108L94.1097 122.894C98.9849 125.157 103.407 125.444 107.177 124.777C115.369 123.327 120.486 117.37 120.486 117.37Z" fill="#347AF0"/>
<path fill-rule="evenodd" clip-rule="evenodd" d="M97.8382 117.37C96.2214 117.37 94.6898 117.006 93.3197 116.356C94.4201 119.256 97.2226 121.318 100.508 121.318C104.754 121.318 108.195 117.876 108.195 113.63C108.195 112.613 107.996 111.643 107.637 110.754C106.073 114.632 102.277 117.37 97.8382 117.37Z" fill="#FCD2B1"/>
<path fill-rule="evenodd" clip-rule="evenodd" d="M93.3197 116.356C94.6899 117.006 96.2213 117.37 97.8383 117.37C102.276 117.37 106.073 114.632 107.637 110.754C107.94 110.003 108.161 109.211 108.284 108.387C101.839 108.252 95.9351 105.879 92.3128 100.173L87.274 106.806C87.274 108.364 87.614 109.841 88.2194 111.173C89.253 113.446 91.0662 115.288 93.3197 116.356Z" fill="#FFE3CA"/>
<path fill-rule="evenodd" clip-rule="evenodd" d="M155.8 61.1857C155.8 61.1857 156.225 61.0883 156.895 60.8522C157.762 60.5467 159.04 60.0062 160.345 59.1401C161.989 58.0491 163.676 56.4412 164.635 54.127L153.565 58.8264C153.565 58.8264 153.616 58.9498 153.707 59.1401C153.836 59.4116 154.047 59.8192 154.309 60.2024C154.722 60.8084 155.26 61.3509 155.8 61.1857Z" fill="#0B4870"/>
<path fill-rule="evenodd" clip-rule="evenodd" d="M136.702 57.8839C136.702 57.8839 137.205 57.769 137.979 57.4851C139.998 56.745 143.868 54.8526 145.537 50.8252L134.468 55.5246C134.468 55.5246 134.844 56.4366 135.379 57.1337C135.765 57.6362 136.233 58.0275 136.702 57.8839Z" fill="#0B4870"/>
<path fill-rule="evenodd" clip-rule="evenodd" d="M97.8382 78.013C70.2936 86.557 87.2739 106.806 87.2739 106.806L92.3128 100.173C95.9352 105.879 101.839 108.252 108.284 108.387C117.908 108.588 128.737 103.795 134.978 97.6427C138.793 93.8826 140.892 89.6152 139.956 85.6688C139.796 84.9909 139.545 84.3226 139.198 83.6679C138.901 83.1071 138.534 82.5564 138.091 82.0185C137.134 80.8539 135.828 79.7484 134.126 78.7295H134.126C131.755 77.3105 129.402 75.9497 127.162 74.6487C115.161 67.6785 106.433 62.4266 115.922 59.1401C116.932 58.7905 118.146 58.463 119.585 58.1582C137.084 54.4529 147.636 43.4851 132.017 40.1696C77.3707 28.5695 49.1595 61.2154 67.5953 70.069C71.0681 71.7367 74.968 72.9044 78.8296 73.7454C92.4452 76.7106 105.584 75.6104 97.8382 78.013Z" fill="#FDB32A"/>
<path fill-rule="evenodd" clip-rule="evenodd" d="M120.211 150.472C128.223 147.532 159.236 141.122 154.043 130.973C148.979 121.075 134.433 113.63 134.433 113.63L131.119 121.317C131.119 121.317 144.398 129.612 144.053 132.554C143.708 135.498 119.151 145.956 119.151 145.956L119.154 145.971C118.971 145.807 118.776 145.639 118.56 145.464C111.303 139.604 112.733 143.098 113.527 144.787C113.802 145.37 113.463 146.052 112.827 146.159C112.285 146.25 111.788 146.353 111.328 146.466C110.534 146.661 109.856 146.884 109.281 147.129C104.335 149.241 106.953 152.93 106.953 152.93C109.336 153.767 112.381 153.288 114.952 152.539C115.677 152.328 116.363 152.096 116.987 151.865C118.893 151.16 120.21 150.473 120.21 150.473L120.211 150.472Z" fill="#FCD2B1"/>
<path fill-rule="evenodd" clip-rule="evenodd" d="M79.3079 185.761C79.5195 185.679 79.7631 185.667 80.0017 185.752C80.0104 185.755 80.0194 185.758 80.0281 185.761C81.0279 186.117 82.5969 186.604 82.5944 185.761C82.5924 185.115 81.6647 183.685 78.8406 180.809C78.7198 180.686 78.602 180.571 78.4863 180.46C78.4659 175.395 78.7959 157.473 84.0317 141.282C85.4116 137.015 87.1317 132.868 89.2765 129.108L81.681 124.827C81.681 124.827 77.6016 132.608 75.1437 147.62C73.7533 156.111 72.8822 166.916 73.5618 179.937C73.2014 180.729 72.2065 183.086 71.7975 185.761C71.5905 187.115 71.5331 188.549 71.7853 189.902C71.7855 189.903 71.7859 189.904 71.7861 189.904C72.1572 191.872 78.0693 191.011 78.2995 189.992C78.3058 189.964 78.3115 189.933 78.3176 189.904C78.4894 189.106 78.6014 188.053 78.7043 186.581C78.7314 186.191 78.9807 185.89 79.3079 185.761Z" fill="#FCD2B1"/>
</svg>
