<svg width="308" height="171" viewBox="0 0 308 171" fill="none" xmlns="http://www.w3.org/2000/svg">
<path d="M292.764 105.53C289.837 105.53 287.118 106.427 284.818 107.951C284.31 100.089 277.768 93.8708 269.761 93.8708C267.222 93.8708 264.832 94.4986 262.741 95.6047C262.741 95.4851 262.741 95.3357 262.741 95.2161C262.741 79.1325 249.686 66.0684 233.614 66.0684C225.697 66.0684 218.558 69.2073 213.3 74.3194C212.583 70.8815 209.356 68.3703 205.622 68.7888C202.276 69.1476 199.617 71.9577 199.408 75.3059C199.139 79.4016 202.396 82.7797 206.429 82.7797C206.727 82.7797 206.996 82.7498 207.265 82.7199C205.473 86.4867 204.487 90.7318 204.487 95.1862C204.487 95.3058 204.487 95.4254 204.487 95.5449L154 82.8096L153.94 82.8395L153.851 82.8096V82.8395L103.364 95.5748C103.364 95.4552 103.364 95.3357 103.364 95.2161C103.364 90.7617 102.348 86.5465 100.585 82.7498C100.854 82.7797 101.153 82.8096 101.422 82.8096C105.455 82.8096 108.681 79.4315 108.442 75.3358C108.233 71.9577 105.574 69.1775 102.229 68.8187C98.4943 68.4002 95.2978 70.9114 94.5509 74.3493C89.2931 69.2372 82.1234 66.0983 74.2367 66.0983C58.1645 66.0983 45.1096 79.1624 45.1096 95.246C45.1096 95.3656 45.1096 95.515 45.1096 95.6346C43.0184 94.5285 40.6285 93.9007 38.0892 93.9007C30.083 93.9007 23.5705 100.119 23.0328 107.981C20.7325 106.457 17.9841 105.56 15.0863 105.56C6.7515 105.53 0 112.765 0 121.673V122.331C0 149.207 21.7781 171 48.6347 171H153.851H154H263.518C288.014 171 307.851 151.15 307.851 126.636V121.673C307.851 112.765 301.099 105.53 292.764 105.53Z" fill="#E0E9F8"/>
<path d="M164.086 58.628C164.324 55.8001 165.04 52.0197 164.086 49.668C163.131 47.3164 161.251 45.6494 159.341 44.935C157.461 44.2206 154.836 42.8215 152.478 43.0597C150.121 43.2978 146.57 45.6494 145.377 46.8401C144.183 48.0308 142.542 52.2578 142.542 53.9248C142.542 55.562 143.974 57.7052 144.422 59.1043C144.869 60.5034 144.422 64.0457 147.495 65.4745C150.569 66.9034 151.046 68.0643 155.074 67.1118C159.102 66.1592 162.892 64.0457 163.131 63.0932C163.369 62.1406 164.086 58.628 164.086 58.628Z" fill="#0E538C"/>
<path d="M154 63.897C166.383 63.897 176.528 74.0179 176.528 86.3714V123.7C176.528 125.248 175.245 126.528 173.693 126.528H134.306C132.755 126.528 131.472 125.248 131.472 123.7V86.3714C131.472 73.9881 141.617 63.897 154 63.897Z" fill="#C5D6F1"/>
<rect x="80" y="108.995" width="148" height="4.16744" fill="#C5D6F1"/>
<rect x="90.6523" y="113.162" width="126.725" height="57.7786" fill="#C5D6F1"/>
<path d="M179.482 95.8966L175.872 76.786C175.126 71.2492 156.506 66.6353 156.506 66.6353C155.074 66.6353 152.687 66.6353 151.255 66.6353C151.255 66.6353 132.546 71.5766 131.8 77.1134L127.145 96.1348C125.981 104.767 133.173 104.142 140.931 106.672L151.285 110.066C152.717 110.066 155.104 110.066 156.536 110.066L166.89 106.672C174.618 104.142 180.676 104.529 179.482 95.8966Z" fill="#FFBE55"/>
<path d="M174.708 81.2808V81.4296L174.022 110.602C173.664 110.899 173.186 111.078 172.679 111.078H134.665C134.545 111.078 134.426 111.078 134.336 111.048L133.561 81.2808H174.708Z" fill="#2A94F4"/>
<path d="M148.599 63.1825L150.181 71.0709L154.089 77.8877L157.342 71.0709L158.625 63.0635L148.599 63.1825Z" fill="#FCD2B1"/>
<path d="M162.952 55.651C162.952 64.224 161.46 67.5877 156.089 69.5524C154.716 70.0584 153.254 69.9989 151.852 69.5821C146.57 68.0342 145.048 64.1347 145.048 55.651C145.048 50.2035 148.241 48.4473 153.194 48.4473C158.148 48.4473 162.952 50.2035 162.952 55.651Z" fill="#FFE3CA"/>
<path d="M145.582 62.1447C146.566 62.0436 147.217 60.5432 147.036 58.7934C146.855 57.0437 145.911 55.7072 144.928 55.8083C143.944 55.9094 143.293 57.4098 143.474 59.1596C143.655 60.9093 144.599 62.2459 145.582 62.1447Z" fill="#FFE3CA"/>
<path d="M164.78 59.1821C164.961 57.4324 164.31 55.9319 163.326 55.8308C162.343 55.7297 161.399 57.0662 161.218 58.816C161.038 60.5658 161.688 62.0662 162.672 62.1673C163.655 62.2684 164.599 60.9319 164.78 59.1821Z" fill="#FFE3CA"/>
<path d="M175.872 83.3049L174.797 108.964C174.797 109.619 174.499 110.215 174.022 110.602C173.664 110.899 173.186 111.078 172.679 111.078H134.664C134.545 111.078 134.426 111.078 134.336 111.048C133.322 110.899 132.546 110.006 132.546 108.964L131.472 83.3049C131.472 82.144 132.427 81.1914 133.59 81.1914H173.753C173.932 81.1914 174.111 81.2212 174.29 81.2509C174.439 81.2807 174.589 81.3402 174.708 81.3998C175.394 81.7868 175.872 82.5012 175.872 83.3049Z" fill="#99B9EE"/>
<path d="M153.612 100.124C155.82 100.124 157.611 98.3378 157.611 96.1348C157.611 93.9319 155.82 92.146 153.612 92.146C151.404 92.146 149.614 93.9319 149.614 96.1348C149.614 98.3378 151.404 100.124 153.612 100.124Z" fill="#E0E9F8"/>
<path d="M109.779 110.066H106.855C105.363 110.066 104.139 108.845 104.139 107.357V98.6353H112.494V107.357C112.494 108.845 111.271 110.066 109.779 110.066Z" fill="#99B9EE"/>
<path opacity="0.59" d="M108.645 97.6231C108.496 97.6231 108.376 97.5636 108.257 97.504C108.138 97.4147 108.048 97.2957 107.959 97.1766C107.809 96.9385 107.72 96.6408 107.72 96.3133C107.72 95.9859 107.899 95.6287 108.108 95.4203C108.317 95.1822 108.496 95.0333 108.585 94.9143C108.705 94.7952 108.734 94.7357 108.794 94.5868C108.824 94.4678 108.854 94.2892 108.854 94.1105C108.854 93.7533 108.705 93.3068 108.585 92.8008C108.824 92.8901 109.063 93.0389 109.272 93.2175C109.48 93.3961 109.659 93.6343 109.749 93.9022C109.868 94.1701 109.928 94.4678 109.898 94.7952C109.898 94.9738 109.839 95.1226 109.749 95.3012C109.659 95.4501 109.57 95.5989 109.451 95.718C109.242 95.9561 109.033 96.0752 108.914 96.1943C108.794 96.3133 108.705 96.3729 108.645 96.4919C108.585 96.611 108.526 96.8194 108.526 96.998C108.496 97.2064 108.496 97.4147 108.645 97.6231Z" fill="#99B9EE"/>
<path d="M111.51 105.482V104.767C112.584 104.767 113.33 104.44 113.628 103.815C113.867 103.338 113.807 102.773 113.449 102.326C113.031 101.79 112.345 101.552 111.569 101.701L111.45 101.017C112.494 100.838 113.479 101.165 114.046 101.91C114.553 102.564 114.643 103.428 114.285 104.142C114.016 104.648 113.33 105.482 111.51 105.482Z" fill="#99B9EE"/>
<path d="M195.804 97.0576L194.103 97.385L192.432 88.2464L192.969 86.3711L194.133 87.9488L195.804 97.0576Z" fill="#2A94F4"/>
<path d="M201.414 98.9925L199.743 98.5758L201.951 89.586L203.234 88.0679L203.652 90.0028L201.414 98.9925Z" fill="#DCF2FF"/>
<path d="M200.727 97.9802L198.997 97.7719L200.071 88.5439L201.145 86.9067L201.802 88.7523L200.727 97.9802Z" fill="#80D5FF"/>
<path d="M203.353 92.146L203.234 95.1823L202.935 102.267L202.637 110.066H192.88L192.492 102.267L192.104 95.1823L191.955 92.146H203.353Z" fill="#99B9EE"/>
<path d="M203.234 95.1821L202.936 102.267H192.492L192.104 95.1821H203.234Z" fill="#C5D6F1"/>
<path d="M144.183 54.3711C143.616 53.9842 144.243 52.4065 144.094 51.6921C143.915 50.9181 144.332 50.1442 144.81 49.5488C146.302 47.8223 148.51 47.1376 150.658 46.9888C152.806 46.84 154.955 47.1079 157.073 46.8995C159.222 46.6911 161.43 45.8874 162.802 44.0418C162.922 43.893 163.698 43.8632 163.877 44.1014C164.533 44.9944 165.19 45.9172 165.607 46.9888C166.025 48.0604 166.115 49.3107 165.667 50.3823C165.07 51.7516 163.31 52.7637 162.027 53.24C162.027 53.1804 150.27 58.3897 144.183 54.3711Z" fill="#0E538C"/>
<path d="M160.057 52.496L162.653 57.9137L164.086 51.5435L160.057 52.496Z" fill="#0E538C"/>
<path d="M147.048 53.6565C146.57 54.1328 145.854 59.0742 145.854 59.0742L143.944 53.2695L147.048 53.6565Z" fill="#0E538C"/>
<rect x="90.7122" y="113.251" width="126.606" height="2.02419" fill="#99B9EE"/>
<path fill-rule="evenodd" clip-rule="evenodd" d="M151 19.25C155.556 19.25 159.25 15.5563 159.25 11C159.25 6.44365 155.556 2.75 151 2.75C146.444 2.75 142.75 6.44365 142.75 11C142.75 15.5563 146.444 19.25 151 19.25Z" fill="white"/>
<path fill-rule="evenodd" clip-rule="evenodd" d="M143.378 10.9575C143.378 6.77856 146.779 3.37847 150.958 3.37847C155.136 3.37847 158.537 6.77856 158.537 10.9575C158.537 15.1365 155.137 18.5366 150.958 18.5366C146.778 18.5366 143.378 15.1365 143.378 10.9575ZM150.98 19.9145C152.464 19.9109 153.863 19.5447 155.094 18.9021C156.486 18.1758 157.662 17.0953 158.505 15.7791C159.009 14.9913 159.396 14.1208 159.634 13.1903C159.818 12.4765 159.915 11.7283 159.915 10.9575C159.915 10.3473 159.854 9.75165 159.737 9.1758C158.911 5.08228 155.294 2 150.958 2C146.01 2 142 6.01057 142 10.9575C142 13.9273 143.446 16.5583 145.672 18.1881C147.154 19.273 148.98 19.9151 150.958 19.9151C150.965 19.9151 150.972 19.9145 150.98 19.9145Z" fill="#C5D6F1"/>
<path fill-rule="evenodd" clip-rule="evenodd" d="M147.508 7.70205C148.095 7.16753 149.023 7.18652 149.589 7.74338C150.065 8.21255 150.164 8.91714 149.887 9.48546L150.299 9.89738C150.704 10.302 151.272 10.4986 151.841 10.4305L152.419 10.361C152.553 9.7435 153.066 9.25003 153.731 9.17575C154.52 9.0875 155.261 9.64576 155.392 10.4288C155.536 11.2873 154.933 12.0821 154.079 12.1849C153.42 12.2639 152.811 11.907 152.537 11.342L152.456 11.3518C151.663 11.447 151.018 12.0368 150.853 12.8185C151.391 13.1416 151.693 13.78 151.556 14.4291C151.378 15.2708 150.533 15.8003 149.691 15.581C148.922 15.3808 148.432 14.593 148.59 13.815C148.723 13.1595 149.26 12.6923 149.887 12.6141L149.98 12.1737C150.11 11.5562 149.92 10.9148 149.474 10.4688L149.189 10.1839C148.624 10.4584 147.925 10.3629 147.456 9.89402C146.847 9.2855 146.865 8.28823 147.508 7.70205ZM158.537 10.9575C158.537 6.77851 155.136 3.37842 150.957 3.37842C146.779 3.37842 143.378 6.77851 143.378 10.9575C143.378 15.1364 146.778 18.5365 150.957 18.5365C155.137 18.5365 158.537 15.1364 158.537 10.9575Z" fill="#E0E9F8"/>
<path d="M157.881 1.02711L157.5 0L157.119 1.02711C156.797 1.89296 156.034 2.62377 155 3.05556C156.034 3.48734 156.797 4.21815 157.119 5.084L157.5 6.11111L157.881 5.084C158.203 4.21815 158.966 3.48734 160 3.05556C158.966 2.62354 158.203 1.89273 157.881 1.02711Z" fill="white"/>
<path fill-rule="evenodd" clip-rule="evenodd" d="M109.016 59.2314C114.221 57.3369 116.904 51.5816 115.01 46.3765C113.115 41.1715 107.36 38.4878 102.155 40.3822C96.95 42.2767 94.2662 48.032 96.1607 53.2371C98.0552 58.4421 103.811 61.1258 109.016 59.2314Z" fill="white"/>
<path fill-rule="evenodd" clip-rule="evenodd" d="M114.232 46.7399C115.948 51.4541 113.508 56.6851 108.794 58.4008C104.08 60.1166 98.8491 57.6775 97.1333 52.9633C95.4175 48.2495 97.857 43.0181 102.571 41.3023C107.285 39.5866 112.516 42.0257 114.232 46.7399ZM102.005 39.7477C96.4249 41.7788 93.5476 47.9491 95.5787 53.5295C97.6098 59.1099 103.78 61.9871 109.361 59.956C109.447 59.9244 109.531 59.8888 109.617 59.8551C110.264 59.601 110.873 59.2916 111.44 58.9329C113.568 57.5865 115.111 55.5576 115.881 53.2507C116.624 51.0274 116.651 48.5481 115.787 46.1743C114.923 43.8006 113.309 41.9184 111.311 40.6927C108.612 39.0367 105.212 38.5806 102.005 39.7477Z" fill="#C5D6F1"/>
<path fill-rule="evenodd" clip-rule="evenodd" d="M106.047 50.8536L102.408 50.5269L103.697 44.3961L108.625 48.264L106.047 50.8536ZM107.668 55.3075L102.74 51.4396L106.589 52.3427L108.957 49.1767L107.668 55.3075ZM102.571 41.3024C97.8568 43.0182 95.4177 48.2494 97.1334 52.9633C98.8492 57.6775 104.08 60.1167 108.794 58.4009C113.508 56.6852 115.948 51.4541 114.232 46.74C112.516 42.0258 107.285 39.5867 102.571 41.3024Z" fill="#E0E9F8"/>
<path d="M113.671 35.9756L112.819 34.974L112.811 36.2887C112.804 37.3969 112.243 38.5343 111.254 39.4455C112.597 39.5081 113.758 40.0189 114.476 40.8633L115.327 41.8651L115.336 40.5503C115.343 39.4421 115.904 38.3046 116.892 37.3934C115.549 37.3306 114.388 36.8198 113.671 35.9756Z" fill="white"/>
<path fill-rule="evenodd" clip-rule="evenodd" d="M206.96 33.3018C213.347 34.4279 217.626 40.5395 216.5 46.9256C215.374 53.3117 209.262 57.5911 202.876 56.4651C196.49 55.339 192.211 49.2274 193.337 42.8413C194.463 36.4552 200.574 32.1758 206.96 33.3018ZM202.505 58.5716C210.064 59.9045 217.273 54.8568 218.606 47.297C219.251 43.6432 218.401 40.0734 216.501 37.2073C214.47 34.1436 211.238 31.8841 207.332 31.1953C199.787 29.8649 192.592 34.8909 191.239 42.4264C191.236 42.441 191.233 42.4552 191.23 42.4699C189.897 50.0297 194.945 57.2386 202.505 58.5716Z" fill="#C5D6F1"/>
<path fill-rule="evenodd" clip-rule="evenodd" d="M206.306 43.8616C206.657 43.7737 206.909 43.4761 206.993 43.0028C207.072 42.5516 206.933 42.2071 206.631 42.0142C206.519 41.9427 206.385 41.8925 206.231 41.8653L204.624 41.582L204.271 43.5874L205.877 43.8707C206.031 43.8978 206.175 43.8936 206.306 43.8616Z" fill="#E0E9F8"/>
<path fill-rule="evenodd" clip-rule="evenodd" d="M205.572 48.0228C206.078 47.9767 206.432 47.6509 206.531 47.0889C206.622 46.573 206.399 46.1559 205.939 45.9423C205.819 45.8865 205.684 45.8444 205.534 45.8179L203.927 45.5347L203.545 47.7031L205.149 48.0012C205.299 48.0277 205.44 48.0344 205.572 48.0228Z" fill="#E0E9F8"/>
<path fill-rule="evenodd" clip-rule="evenodd" d="M204.854 38.0731L204.619 39.4057L205.374 39.5387L205.609 38.2061L207.252 38.4959L207.015 39.8384C208.633 40.2337 209.483 41.4059 209.218 42.9087C209.028 43.9855 208.339 44.7613 207.444 44.9081C208.41 45.3526 208.858 46.4804 208.624 47.8084C208.32 49.53 206.995 50.4231 205.194 50.1656L204.926 51.6839L203.283 51.3941L203.55 49.8786L202.796 49.7456L202.529 51.2611L200.886 50.9715L201.153 49.456L199.929 49.24L200.301 47.131L201.472 47.3376L202.551 41.2168L201.38 41.0102L201.752 38.9001L202.977 39.116L203.211 37.7834L204.854 38.0731ZM193.337 42.8414C192.21 49.2275 196.49 55.3391 202.876 56.4651C209.262 57.5912 215.374 53.3118 216.5 46.9257C217.626 40.5396 213.347 34.428 206.96 33.3019C200.574 32.1759 194.463 36.4553 193.337 42.8414Z" fill="#E0E9F8"/>
<path fill-rule="evenodd" clip-rule="evenodd" d="M203.927 45.5346L205.534 45.8178C205.684 45.8443 205.819 45.8864 205.939 45.9422C206.399 46.1559 206.622 46.573 206.531 47.0888C206.432 47.6508 206.078 47.9767 205.572 48.0227C205.44 48.0343 205.299 48.0276 205.149 48.0011L203.545 47.703L203.927 45.5346ZM204.624 41.5821L206.231 41.8654C206.385 41.8926 206.52 41.9428 206.631 42.0143C206.933 42.2072 207.072 42.5516 206.993 43.0028C206.909 43.4761 206.657 43.7738 206.305 43.8617C206.176 43.8938 206.031 43.8979 205.877 43.8708L204.271 43.5875L204.624 41.5821ZM202.976 39.1158L201.752 38.9L201.38 41.0101L202.552 41.2166L201.472 47.3375L200.301 47.1309L199.929 49.2399L201.153 49.4558L200.886 50.9713L202.529 51.261L202.796 49.7455L203.551 49.8785L203.283 51.394L204.926 51.6837L205.194 50.1654C206.995 50.4229 208.32 49.5299 208.624 47.8082C208.858 46.4803 208.411 45.3525 207.444 44.908C208.339 44.7612 209.028 43.9853 209.218 42.9085C209.483 41.4058 208.633 40.2335 207.015 39.8382L207.252 38.4957L205.609 38.206L205.374 39.5386L204.62 39.4056L204.854 38.073L203.211 37.7833L202.976 39.1158Z" fill="white"/>
<path d="M217.148 32.3585L216.841 30.6772L215.977 32.1519C215.248 33.395 213.878 34.311 212.172 34.6943C213.644 35.6377 214.619 36.9672 214.878 38.3845L215.185 40.0657L216.049 38.5911C216.778 37.3479 218.149 36.432 219.854 36.0487C218.383 35.105 217.408 33.7754 217.148 32.3585Z" fill="white"/>
<path d="M261.444 170.852C256.516 170.852 254.43 166.966 253.584 162.872C252.647 158.244 253.342 153.29 253.342 153.29H269.547C269.547 153.29 269.577 153.468 269.607 153.824C269.879 156.761 270.877 170.852 261.444 170.852Z" fill="#C5D6F1"/>
<path d="M269.547 153.32C269.547 153.676 265.919 153.943 261.444 153.943C256.97 153.943 253.342 153.676 253.342 153.32C253.342 152.964 256.97 152.697 261.444 152.697C265.919 152.697 269.547 152.964 269.547 153.32Z" fill="#D4DFF3"/>
<path d="M241.279 109.267C241.279 109.267 249.805 122.023 254.944 129.795C260.053 137.568 261.414 139.199 262.019 141.721C262.623 144.242 263.167 153.498 263.167 153.498H263.833C263.833 153.498 264.256 145.666 263.47 143.085C262.684 140.504 262.986 139.496 263.349 136.796C263.712 134.097 264.195 129.795 261.414 126.799C258.633 123.803 259.358 120.866 258.391 118.908C257.423 116.921 249.865 114.548 248.867 112.501C247.93 110.454 243.667 109.208 241.279 109.267Z" fill="#C5D5F0"/>
<path opacity="0.26" d="M241.279 109.267C241.279 109.267 243.97 112.263 245.784 113.272C247.628 114.28 248.474 113.391 249.865 115.853C251.256 118.315 251.316 119.383 252.616 120.629C253.886 121.875 255.428 121.934 255.549 124.693C255.67 127.452 254.944 129.795 254.944 129.795C254.944 129.795 241.823 109.92 241.279 109.267Z" fill="white"/>
<path d="M261.172 153.497H260.567C260.567 153.497 260.386 149.433 258.723 147.446C257.665 146.17 253.16 144.717 248.686 142.996C246.237 142.047 243.788 141.008 241.944 139.852C236.744 136.618 231.816 126.206 231.393 124.337C231.242 123.684 231.181 123.298 231.181 123.031C231.181 122.527 231.453 122.468 231.877 121.963C232.088 121.726 232.723 121.815 233.479 122.023C235.716 122.705 237.591 124.188 238.77 126.176C239.858 128.015 241.581 130.299 243.698 130.863C247.356 131.812 247.053 132.406 248.414 136.084C249.774 139.733 253.16 140.326 257.423 144.628C261.716 148.959 261.172 153.497 261.172 153.497Z" fill="#C5D5F0"/>
<path opacity="0.26" d="M248.686 142.996C246.237 142.047 243.788 141.009 241.944 139.852C236.744 136.618 231.816 126.206 231.393 124.337C231.242 123.684 231.181 123.299 231.181 123.032C231.181 123.15 231.423 124.812 234.144 125.909C236.956 127.037 237.5 127.037 237.863 128.787C238.226 130.507 238.528 132.376 240.009 132.732C241.46 133.088 242.398 131.486 243.547 134.097C244.695 136.737 245.27 137.627 246.328 137.983C247.386 138.339 248.202 137.805 248.444 139.852C248.565 141.098 248.656 142.255 248.686 142.996Z" fill="white"/>
<path d="M261.444 170.851C256.516 170.851 254.43 166.965 253.584 162.872C258.421 161.062 264.528 158.184 269.577 153.824C269.879 156.761 270.877 170.851 261.444 170.851Z" fill="#C5D6F1"/>
<path d="M51.0354 170.85C56.894 170.85 59.375 166.14 60.3315 161.16C61.4375 155.55 60.6305 149.55 60.6305 149.55H41.4402C41.4402 149.55 41.4104 149.79 41.3805 150.18C40.9919 153.75 39.8261 170.85 51.0354 170.85Z" fill="#C5D6F1"/>
<path d="M41.4104 149.58C41.4104 150 45.7147 150.33 51.0055 150.33C56.2963 150.33 60.6006 150 60.6006 149.58C60.6006 149.16 56.2963 148.83 51.0055 148.83C45.7147 148.83 41.4104 149.16 41.4104 149.58Z" fill="#E0E9F8"/>
<path d="M25.0298 96.18C25.0298 96.18 35.1629 111.63 41.2309 121.08C47.2988 130.53 48.883 132.48 49.6303 135.51C50.3477 138.57 51.0053 149.82 51.0053 149.82H51.4537C51.4537 149.82 51.3042 140.28 50.7363 137.07C50.1983 133.95 50.7662 132.84 51.2146 129.57C51.6629 126.3 52.2309 121.08 48.9428 117.45C45.6548 113.82 46.5216 110.28 45.3559 107.88C44.1901 105.48 35.2227 102.57 34.0869 100.11C32.9211 97.62 27.8396 96.09 25.0298 96.18Z" fill="#C5D5F0"/>
<path opacity="0.26" d="M25.0298 96.1802C25.0298 96.1802 28.1983 99.8102 30.3803 101.04C32.5624 102.27 33.5488 101.19 35.2227 104.16C36.8966 107.13 36.9564 108.45 38.4809 109.98C40.0053 111.51 41.7988 111.57 41.9483 114.9C42.0977 118.23 41.2309 121.08 41.2309 121.08C41.2309 121.08 25.6874 96.9602 25.0298 96.1802Z" fill="white"/>
<path d="M50.1983 149.79H49.7499C49.7499 149.79 49.6004 146.7 48.4048 145.2C47.6276 144.24 44.2798 143.13 40.9618 141.81C39.1385 141.09 37.3151 140.28 35.97 139.41C32.114 136.95 28.4374 129.03 28.1385 127.62C28.0189 127.14 27.989 126.84 27.989 126.63C27.989 126.24 28.1983 126.18 28.4972 125.82C28.6466 125.64 29.1249 125.7 29.6928 125.88C31.3667 126.39 32.7417 127.53 33.6086 129.03C34.4156 130.44 35.701 132.18 37.2553 132.6C39.9754 133.32 39.7363 133.77 40.7526 136.56C41.739 139.32 44.2798 139.8 47.4483 143.07C50.5868 146.34 50.1983 149.79 50.1983 149.79Z" fill="#C5D5F0"/>
<path opacity="0.26" d="M40.9321 141.84C39.1087 141.12 37.2853 140.31 35.9402 139.44C32.0842 136.98 28.4076 129.06 28.1087 127.65C27.9891 127.17 27.9592 126.87 27.9592 126.66C27.9592 126.75 28.1386 128.01 30.1413 128.85C32.2337 129.72 32.6223 129.72 32.8913 131.04C33.1603 132.36 33.3994 133.77 34.4755 134.04C35.5516 134.31 36.2391 133.08 37.106 135.09C37.9728 137.1 38.3913 137.76 39.1685 138.03C39.9456 138.3 40.5734 137.88 40.7228 139.44C40.8424 140.37 40.9022 141.27 40.9321 141.84Z" fill="white"/>
<path d="M53.5162 149.79H54.0542C54.0542 149.79 55.1004 130.65 56.5651 128.88C57.4917 127.74 60.5705 125.67 64.5162 124.11C66.6684 123.24 68.8205 122.31 70.4347 121.29C75.008 118.38 79.3423 109.02 79.701 107.34C79.8205 106.77 79.8803 106.41 79.8803 106.17C79.8803 105.72 79.6412 105.66 79.2526 105.21C79.0733 105 78.5053 105.06 77.8477 105.27C75.8749 105.87 74.2309 107.22 73.1847 109.02C72.2282 110.67 70.7037 112.74 68.8504 113.25C65.6222 114.12 65.8912 114.66 64.7254 117.93C63.5298 121.23 60.5407 121.74 56.8042 125.64C53.0379 129.48 53.5162 149.79 53.5162 149.79Z" fill="#C5D5F0"/>
<path opacity="0.26" d="M64.4863 124.14C66.6385 123.27 68.7907 122.34 70.4048 121.32C74.9782 118.41 79.3124 109.05 79.6711 107.37C79.7907 106.8 79.8505 106.44 79.8505 106.2C79.8505 106.32 79.6113 107.79 77.2499 108.78C74.7988 109.8 74.2907 109.8 73.9918 111.36C73.663 112.92 73.3939 114.6 72.1086 114.9C70.8233 115.23 70.0162 113.76 68.9999 116.13C67.9836 118.5 67.5053 119.31 66.5488 119.64C65.6222 119.97 64.9048 119.49 64.6956 121.32C64.6059 122.4 64.5162 123.48 64.4863 124.14Z" fill="white"/>
<path d="M51.0353 170.85C56.894 170.85 59.375 166.14 60.3315 161.16C54.5924 158.97 47.3587 155.46 41.3506 150.18C40.9919 153.75 39.8261 170.85 51.0353 170.85Z" fill="#C5D6F1"/>
</svg>
