<svg width="203" height="76" viewBox="0 0 203 76" fill="none" xmlns="http://www.w3.org/2000/svg">
<path d="M31.84 1.624H34.08L37.384 19.096H38.196L42.144 1.792H44.664L48.612 19.096H49.424L52.728 1.624H54.94L51.02 21H47.072L43.404 4.452L39.736 21H35.788L31.84 1.624ZM66.7899 19.264L67.6019 19.18L67.6579 20.832C65.5299 21.1307 63.7099 21.28 62.1979 21.28C60.1819 21.28 58.7539 20.7013 57.9139 19.544C57.0739 18.368 56.6539 16.548 56.6539 14.084C56.6539 9.17467 58.6046 6.72 62.5059 6.72C64.3912 6.72 65.8006 7.252 66.7339 8.316C67.6672 9.36133 68.1339 11.0133 68.1339 13.272L68.0219 14.868H58.7819C58.7819 16.4173 59.0619 17.5653 59.6219 18.312C60.1819 19.0587 61.1526 19.432 62.5339 19.432C63.9339 19.432 65.3526 19.376 66.7899 19.264ZM66.0339 13.188C66.0339 11.4707 65.7539 10.2573 65.1939 9.548C64.6526 8.83867 63.7566 8.484 62.5059 8.484C61.2739 8.484 60.3406 8.85733 59.7059 9.604C59.0899 10.3507 58.7726 11.5453 58.7539 13.188H66.0339ZM71.5746 21V0.895998H73.6746V21H71.5746ZM83.1231 6.72C83.7391 6.72 84.7844 6.832 86.2591 7.056L86.9311 7.14L86.8471 8.848C85.3538 8.68 84.2524 8.596 83.5431 8.596C81.9564 8.596 80.8738 8.97867 80.2951 9.744C79.7351 10.4907 79.4551 11.8907 79.4551 13.944C79.4551 15.9787 79.7164 17.3973 80.2391 18.2C80.7804 19.0027 81.8911 19.404 83.5711 19.404L86.8751 19.152L86.9591 20.888C85.2231 21.1493 83.9258 21.28 83.0671 21.28C80.8831 21.28 79.3711 20.72 78.5311 19.6C77.7098 18.48 77.2991 16.5947 77.2991 13.944C77.2991 11.2747 77.7471 9.408 78.6431 8.344C79.5391 7.26133 81.0324 6.72 83.1231 6.72ZM89.3023 13.972C89.3023 11.4147 89.7597 9.56667 90.6743 8.428C91.589 7.28933 93.129 6.72 95.2943 6.72C97.4783 6.72 99.0183 7.28933 99.9143 8.428C100.829 9.56667 101.286 11.4147 101.286 13.972C101.286 16.5293 100.857 18.3867 99.9983 19.544C99.1397 20.7013 97.5717 21.28 95.2943 21.28C93.017 21.28 91.449 20.7013 90.5903 19.544C89.7317 18.3867 89.3023 16.5293 89.3023 13.972ZM91.4583 13.944C91.4583 15.9787 91.701 17.4067 92.1863 18.228C92.6903 19.0493 93.7263 19.46 95.2943 19.46C96.881 19.46 97.917 19.0587 98.4023 18.256C98.8877 17.4347 99.1303 15.9973 99.1303 13.944C99.1303 11.8907 98.8597 10.4813 98.3183 9.716C97.777 8.932 96.769 8.54 95.2943 8.54C93.8383 8.54 92.8303 8.932 92.2703 9.716C91.729 10.4813 91.4583 11.8907 91.4583 13.944ZM106.811 21H104.711V7H106.783V7.98C108.183 7.14 109.546 6.72 110.871 6.72C112.607 6.72 113.821 7.196 114.511 8.148C115.127 7.77467 115.921 7.448 116.891 7.168C117.881 6.86933 118.749 6.72 119.495 6.72C121.362 6.72 122.613 7.224 123.247 8.232C123.901 9.22133 124.227 11.0133 124.227 13.608V21H122.127V13.664C122.127 11.7227 121.941 10.3973 121.567 9.688C121.194 8.96 120.401 8.596 119.187 8.596C118.571 8.596 117.937 8.68933 117.283 8.876C116.63 9.044 116.126 9.212 115.771 9.38L115.239 9.632C115.482 10.248 115.603 11.6107 115.603 13.72V21H113.503V13.776C113.503 11.76 113.317 10.3973 112.943 9.688C112.589 8.96 111.795 8.596 110.563 8.596C109.966 8.596 109.35 8.68933 108.715 8.876C108.099 9.044 107.623 9.212 107.287 9.38L106.811 9.632V21ZM137.638 19.264L138.45 19.18L138.506 20.832C136.378 21.1307 134.558 21.28 133.046 21.28C131.03 21.28 129.602 20.7013 128.762 19.544C127.922 18.368 127.502 16.548 127.502 14.084C127.502 9.17467 129.452 6.72 133.354 6.72C135.239 6.72 136.648 7.252 137.582 8.316C138.515 9.36133 138.982 11.0133 138.982 13.272L138.87 14.868H129.63C129.63 16.4173 129.91 17.5653 130.47 18.312C131.03 19.0587 132 19.432 133.382 19.432C134.782 19.432 136.2 19.376 137.638 19.264ZM136.882 13.188C136.882 11.4707 136.602 10.2573 136.042 9.548C135.5 8.83867 134.604 8.484 133.354 8.484C132.122 8.484 131.188 8.85733 130.554 9.604C129.938 10.3507 129.62 11.5453 129.602 13.188H136.882ZM155.659 8.82H151.207V15.512C151.207 17.1173 151.319 18.172 151.543 18.676C151.785 19.18 152.345 19.432 153.223 19.432L155.715 19.264L155.855 21C154.604 21.2053 153.652 21.308 152.999 21.308C151.543 21.308 150.535 20.9533 149.975 20.244C149.415 19.5347 149.135 18.1813 149.135 16.184V8.82H147.147V7H149.135V2.716H151.207V7H155.659V8.82ZM157.607 13.972C157.607 11.4147 158.064 9.56667 158.979 8.428C159.894 7.28933 161.434 6.72 163.599 6.72C165.783 6.72 167.323 7.28933 168.219 8.428C169.134 9.56667 169.591 11.4147 169.591 13.972C169.591 16.5293 169.162 18.3867 168.303 19.544C167.444 20.7013 165.876 21.28 163.599 21.28C161.322 21.28 159.754 20.7013 158.895 19.544C158.036 18.3867 157.607 16.5293 157.607 13.972ZM159.763 13.944C159.763 15.9787 160.006 17.4067 160.491 18.228C160.995 19.0493 162.031 19.46 163.599 19.46C165.186 19.46 166.222 19.0587 166.707 18.256C167.192 17.4347 167.435 15.9973 167.435 13.944C167.435 11.8907 167.164 10.4813 166.623 9.716C166.082 8.932 165.074 8.54 163.599 8.54C162.143 8.54 161.135 8.932 160.575 9.716C160.034 10.4813 159.763 11.8907 159.763 13.944Z" fill="white" fill-opacity="0.504289"/>
<path d="M0.584 41.64H3.608L9.656 72.36H11.24L18.248 42.024H21.752L28.712 72.36H30.296L36.344 41.64H39.368L32.504 75H26.552L19.976 45.72L13.4 75H7.448L0.584 41.64ZM66.2011 75V59.592H48.1051V75H45.1291V41.64H48.1051V56.952H66.2011V41.64H69.1291V75H66.2011ZM79.2958 58.488C79.2958 63.576 79.9678 67.24 81.3118 69.48C82.6558 71.688 85.2958 72.792 89.2318 72.792C93.1998 72.792 95.8558 71.704 97.1998 69.528C98.5438 67.352 99.2158 63.72 99.2158 58.632C99.2158 53.512 98.5118 49.768 97.1038 47.4C95.6958 45.032 93.0718 43.848 89.2318 43.848C85.2638 43.848 82.5918 45.128 81.2158 47.688C80.4798 49 79.9678 50.504 79.6797 52.2C79.4238 53.896 79.2958 55.992 79.2958 58.488ZM102.288 58.584C102.288 64.536 101.344 68.84 99.4558 71.496C97.5998 74.152 94.1918 75.48 89.2318 75.48C84.3038 75.48 80.8958 74.12 79.0078 71.4C77.1518 68.68 76.2238 64.392 76.2238 58.536C76.2238 52.648 77.1678 48.28 79.0558 45.432C80.9438 42.584 84.3358 41.16 89.2318 41.16C94.1278 41.16 97.5198 42.584 99.4078 45.432C101.328 48.248 102.288 52.632 102.288 58.584ZM127.541 75H109.301V41.64H112.277V72.312H127.541V75ZM150.604 75H132.364V41.64H135.34V72.312H150.604V75ZM155.426 75V41.64H175.442V44.328H158.402V56.712H172.562V59.352H158.402V72.36H175.442V75H155.426ZM178.358 44.328V41.64H202.358V44.328H191.894V75H188.918V44.328H178.358Z" fill="white"/>
</svg>
